 http://www.imdb.com/title/tt2196254/


Format                                   : Matroska
Format version                           : Version 2
File size                                : 2.33 GiB
Duration                                 : 2h 16mn
Overall bit rate                         : 2 449 Kbps

Video
ID                                       : 1
Format                                   : AVC
Format/Info                              : Advanced Video Codec
Format profile                           : High@L4.1
Format settings, CABAC                   : Yes
Format settings, ReFrames                : 4 frames
Muxing mode                              : Header stripping
Codec ID                                 : V_MPEG4/ISO/AVC
Duration                                 : 2h 16mn
Bit rate                                 : 2 000 Kbps
Width                                    : 1 280 pixels
Height                                   : 544 pixels
Display aspect ratio                     : 2.35:1
Frame rate                               : 23.976 fps
Stream size                              : 1.86 GiB (80%)

Audio
ID                                       : 2
Format                                   : AC-3
Bit rate                                 : 448 Kbps
Channel(s)                               : 6 channels
Channel positions                        : Front: L C R, Side: L R, LFE
Sampling rate                            : 48.0 KHz
Bit depth                                : 16 bits
Compression mode                         : Lossy
Stream size                              : 437 MiB (18%)
Language                                 : Punjabi
 
http://www.shotpix.com/images/03436961950441045416.png
 
http://www.shotpix.com/images/97329017611234193710.png
 
http://www.shotpix.com/images/49239537528491572161.png
 
http://www.shotpix.com/images/76339254780738121951.png
 
http://www.shotpix.com/images/06193452067068292825.png
 
http://www.shotpix.com/images/37283010645428894863.png
 
http://www.shotpix.com/images/13198970070613266113.png
 
http://www.shotpix.com/images/29751053670730839751.png
 
http://www.shotpix.com/images/12938266150475943331.png